<?xml version="1.0" encoding="UTF-8" standalone="no"?>
<!DOCTYPE svg PUBLIC "-//W3C//DTD SVG 1.1//EN" "http://www.w3.org/Graphics/SVG/1.1/DTD/svg11.dtd">
<svg xmlns="http://www.w3.org/2000/svg" xmlns:xlink="http://www.w3.org/1999/xlink" version="1.1" width="232.5565pt" height="50.916925pt" viewBox="0 0 232.5565 50.916925">
<g enable-background="new">
<g id="Layer-1" data-name="Layer">
<g id="Layer-2" data-name="AltAI8">
</g>
</g>
<g id="Layer-1" data-name="Layer">
<g id="Layer-2" data-name="AltAI8">
</g>
</g>
<g id="Layer-1" data-name="Layer">
<g id="Layer-2" data-name="AltAI8">
</g>
</g>
<g id="Layer-1" data-name="Layer">
<g id="Layer-2" data-name="AltAI8">
</g>
</g>
<g id="Layer-1" data-name="Layer">
<g id="Layer-2" data-name="AltAI8">
</g>
</g>
<g id="Layer-1" data-name="Layer">
<g id="Layer-2" data-name="AltAI8">
</g>
</g>
<g id="Layer-1" data-name="Layer">
<g id="Layer-2" data-name="AltAI8">
</g>
</g>
<g id="Layer-1" data-name="Layer">
<g id="Layer-2" data-name="AltAI8">
</g>
</g>
<g id="Layer-1" data-name="Layer">
<g id="Layer-2" data-name="AltAI8">
</g>
</g>
<g id="Layer-1" data-name="Layer">
<g id="Layer-2" data-name="AltAI8">
</g>
</g>
<g id="Layer-1" data-name="Layer">
<g id="Layer-2" data-name="AltAI8">
</g>
</g>
<g id="Layer-1" data-name="Layer">
<g id="Layer-2" data-name="AltAI8">
</g>
</g>
<g id="Layer-1" data-name="Layer">
<g id="Layer-2" data-name="AltAI8">
</g>
</g>
<g id="Layer-1" data-name="Layer">
<g id="Layer-2" data-name="AltAI8">
</g>
</g>
<g id="Layer-1" data-name="Layer">
<g id="Layer-2" data-name="AltAI8">
</g>
</g>
<g id="Layer-1" data-name="Layer">
<g id="Layer-2" data-name="AltAI8">
</g>
</g>
<g id="Layer-1" data-name="Layer">
<g id="Layer-2" data-name="AltAI8">
</g>
</g>
<g id="Layer-1" data-name="Layer">
<g id="Layer-2" data-name="AltAI8">
</g>
</g>
<g id="Layer-1" data-name="Layer">
<g id="Layer-2" data-name="AltAI8">
</g>
</g>
<g id="Layer-1" data-name="Layer">
<g id="Layer-2" data-name="AltAI8">
</g>
</g>
<g id="Layer-1" data-name="Layer">
<g id="Layer-2" data-name="AltAI8">
</g>
</g>
<g id="Layer-1" data-name="Layer">
<g id="Layer-2" data-name="AltAI8">
</g>
</g>
<g id="Layer-1" data-name="Layer">
<g id="Layer-2" data-name="AltAI8">
</g>
</g>
<g id="Layer-1" data-name="Layer">
<g id="Layer-2" data-name="AltAI8">
</g>
</g>
<g id="Layer-1" data-name="Layer">
<g id="Layer-2" data-name="AltAI8">
</g>
</g>
<g id="Layer-1" data-name="Layer">
<g id="Layer-2" data-name="AltAI8">
</g>
</g>
<g id="Layer-1" data-name="Layer">
<g id="Layer-2" data-name="AltAI8">
</g>
</g>
<g id="Layer-1" data-name="Layer">
<g id="Layer-2" data-name="AltAI8">
</g>
</g>
<g id="Layer-1" data-name="Layer">
<g id="Layer-2" data-name="AltAI8">
</g>
</g>
<g id="Layer-1" data-name="Layer">
<g id="Layer-2" data-name="AltAI8">
</g>
</g>
<g id="Layer-1" data-name="Layer">
<g id="Layer-2" data-name="AltAI8">
</g>
</g>
<g id="Layer-1" data-name="Layer">
<g id="Layer-2" data-name="AltAI8">
</g>
</g>
<g id="Layer-1" data-name="Layer">
<g id="Layer-2" data-name="AltAI8">
</g>
</g>
<g id="Layer-1" data-name="Layer">
<g id="Layer-2" data-name="AltAI8">
</g>
</g>
<g id="Layer-1" data-name="Layer">
<g id="Layer-2" data-name="AltAI8">
</g>
</g>
<g id="Layer-1" data-name="Layer">
<g id="Layer-2" data-name="AltAI8">
</g>
</g>
<g id="Layer-1" data-name="Layer">
<g id="Layer-2" data-name="AltAI8">
</g>
</g>
<g id="Layer-1" data-name="Layer">
<g id="Layer-2" data-name="AltAI8">
</g>
</g>
<g id="Layer-1" data-name="Layer">
<g id="Layer-2" data-name="AltAI8">
</g>
</g>
<g id="Layer-1" data-name="Layer">
<g id="Layer-2" data-name="AltAI8">
</g>
</g>
<g id="Layer-1" data-name="Layer">
<g id="Layer-2" data-name="AltAI8">
</g>
</g>
<g id="Layer-1" data-name="Layer">
<g id="Layer-2" data-name="AltAI8">
</g>
</g>
<g id="Layer-1" data-name="Layer">
<g id="Layer-2" data-name="AltAI8">
</g>
</g>
<g id="Layer-1" data-name="Layer">
<g id="Layer-2" data-name="AltAI8">
</g>
</g>
<g id="Layer-1" data-name="Layer">
<g id="Layer-2" data-name="AltAI8">
</g>
</g>
<g id="Layer-1" data-name="Layer">
<g id="Layer-2" data-name="AltAI8">
</g>
</g>
<g id="Layer-1" data-name="Layer">
<g id="Layer-2" data-name="AltAI8">
</g>
</g>
<g id="Layer-1" data-name="Layer">
<g id="Layer-2" data-name="AltAI8">
</g>
</g>
<g id="Layer-1" data-name="Layer">
<g id="Layer-2" data-name="AltAI8">
</g>
</g>
<g id="Layer-1" data-name="Layer">
<g id="Layer-2" data-name="AltAI8">
</g>
</g>
<g id="Layer-1" data-name="Layer">
<g id="Layer-2" data-name="AltAI8">
</g>
</g>
<g id="Layer-1" data-name="Layer">
<g id="Layer-2" data-name="AltAI8">
</g>
</g>
<g id="Layer-1" data-name="Layer">
<g id="Layer-2" data-name="AltAI8">
</g>
</g>
<g id="Layer-1" data-name="Layer">
<g id="Layer-2" data-name="AltAI8">
</g>
</g>
<g id="Layer-1" data-name="Layer">
<g id="Layer-2" data-name="AltAI8">
</g>
</g>
<g id="Layer-1" data-name="Layer">
<g id="Layer-2" data-name="AltAI8">
</g>
</g>
<g id="Layer-1" data-name="Layer">
<g id="Layer-2" data-name="AltAI8">
</g>
</g>
<g id="Layer-1" data-name="Layer">
<g id="Layer-2" data-name="AltAI8">
</g>
</g>
<g id="Layer-1" data-name="Layer">
<g id="Layer-2" data-name="AltAI8">
</g>
</g>
<g id="Layer-1" data-name="Layer">
<g id="Layer-2" data-name="AltAI8">
</g>
</g>
<g id="Layer-1" data-name="Layer">
<g id="Layer-2" data-name="AltAI8">
</g>
</g>
<g id="Layer-1" data-name="Layer">
<g id="Layer-2" data-name="AltAI8">
</g>
</g>
<g id="Layer-1" data-name="Layer">
<g id="Layer-2" data-name="AltAI8">
</g>
</g>
<g id="Layer-1" data-name="Layer">
<g id="Layer-2" data-name="AltAI8">
</g>
</g>
<g id="Layer-1" data-name="Layer">
<g id="Layer-2" data-name="AltAI8">
</g>
</g>
<g id="Layer-1" data-name="Layer">
<g id="Layer-2" data-name="AltAI8">
</g>
</g>
<g id="Layer-1" data-name="Layer">
<g id="Layer-2" data-name="AltAI8">
</g>
</g>
<g id="Layer-1" data-name="Layer">
<g id="Layer-2" data-name="AltAI8">
</g>
</g>
<g id="Layer-1" data-name="Layer">
<g id="Layer-2" data-name="AltAI8">
</g>
</g>
<g id="Layer-1" data-name="Layer">
<g id="Layer-2" data-name="AltAI8">
</g>
</g>
<g id="Layer-1" data-name="Layer">
<g id="Layer-2" data-name="AltAI8">
</g>
</g>
<g id="Layer-1" data-name="Layer">
<g id="Layer-2" data-name="AltAI8">
</g>
</g>
<g id="Layer-1" data-name="Layer">
<g id="Layer-2" data-name="AltAI8">
</g>
</g>
<g id="Layer-1" data-name="Layer">
<g id="Layer-2" data-name="AltAI8">
</g>
</g>
<g id="Layer-1" data-name="Layer">
<g id="Layer-2" data-name="AltAI8">
</g>
</g>
<g id="Layer-1" data-name="Layer">
<g id="Layer-2" data-name="AltAI8">
</g>
</g>
<g id="Layer-1" data-name="Layer">
<g id="Layer-2" data-name="AltAI8">
</g>
</g>
<g id="Layer-1" data-name="Layer">
<g id="Layer-2" data-name="AltAI8">
</g>
</g>
<g id="Layer-1" data-name="Layer">
<g id="Layer-2" data-name="AltAI8">
</g>
</g>
<g id="Layer-1" data-name="Layer">
<g id="Layer-2" data-name="AltAI8">
</g>
</g>
<g id="Layer-1" data-name="Layer">
<g id="Layer-2" data-name="AltAI8">
</g>
</g>
<g id="Layer-1" data-name="Layer">
<g id="Layer-2" data-name="AltAI8">
</g>
</g>
<g id="Layer-1" data-name="Layer">
<g id="Layer-2" data-name="AltAI8">
</g>
</g>
<g id="Layer-1" data-name="Layer">
<g id="Layer-2" data-name="AltAI8">
</g>
</g>
<g id="Layer-1" data-name="Layer">
<g id="Layer-2" data-name="AltAI8">
</g>
</g>
<g id="Layer-1" data-name="Layer">
<g id="Layer-2" data-name="AltAI8">
</g>
</g>
<g id="Layer-1" data-name="Layer">
<g id="Layer-2" data-name="AltAI8">
</g>
</g>
<g id="Layer-1" data-name="Layer">
<g id="Layer-2" data-name="AltAI8">
</g>
</g>
<g id="Layer-1" data-name="Layer">
<g id="Layer-2" data-name="AltAI8">
</g>
</g>
<g id="Layer-1" data-name="Layer">
<g id="Layer-2" data-name="AltAI8">
</g>
</g>
<g id="Layer-1" data-name="Layer">
<g id="Layer-2" data-name="AltAI8">
</g>
</g>
<g id="Layer-1" data-name="Layer">
<g id="Layer-2" data-name="AltAI8">
</g>
</g>
<g id="Layer-1" data-name="Layer">
<g id="Layer-2" data-name="AltAI8">
</g>
</g>
<g id="Layer-1" data-name="Layer">
<g id="Layer-2" data-name="AltAI8">
</g>
</g>
<g id="Layer-1" data-name="Layer">
<g id="Layer-2" data-name="AltAI8">
</g>
</g>
<g id="Layer-1" data-name="Layer">
<g id="Layer-2" data-name="AltAI8">
</g>
</g>
<g id="Layer-1" data-name="Layer">
<g id="Layer-2" data-name="AltAI8">
</g>
</g>
<g id="Layer-1" data-name="Layer">
<g id="Layer-2" data-name="AltAI8">
</g>
</g>
<g id="Layer-1" data-name="Layer">
<g id="Layer-2" data-name="AltAI8">
</g>
</g>
<g id="Layer-1" data-name="Layer">
<g id="Layer-2" data-name="AltAI8">
</g>
</g>
<g id="Layer-1" data-name="Layer">
<g id="Layer-2" data-name="AltAI8">
</g>
</g>
<g id="Layer-1" data-name="Layer">
<g id="Layer-2" data-name="AltAI8">
</g>
</g>
<g id="Layer-1" data-name="Layer">
<g id="Layer-2" data-name="AltAI8">
</g>
</g>
<g id="Layer-1" data-name="Layer">
<g id="Layer-2" data-name="AltAI8">
</g>
</g>
<g id="Layer-1" data-name="Layer">
<g id="Layer-2" data-name="AltAI8">
</g>
</g>
<g id="Layer-1" data-name="Layer">
<g id="Layer-2" data-name="AltAI8">
</g>
</g>
<g id="Layer-1" data-name="Layer">
<g id="Layer-2" data-name="AltAI8">
</g>
</g>
<g id="Layer-1" data-name="Layer">
<g id="Layer-2" data-name="AltAI8">
</g>
</g>
<g id="Layer-1" data-name="Layer">
<g id="Layer-2" data-name="AltAI8">
</g>
</g>
<g id="Layer-1" data-name="Layer">
<g id="Layer-2" data-name="AltAI8">
</g>
</g>
<g id="Layer-1" data-name="Layer">
<g id="Layer-2" data-name="AltAI8">
</g>
</g>
<g id="Layer-1" data-name="Layer">
<g id="Layer-2" data-name="AltAI8">
</g>
</g>
<g id="Layer-1" data-name="Layer">
<g id="Layer-2" data-name="AltAI8">
</g>
</g>
<g id="Layer-1" data-name="Layer">
<g id="Layer-2" data-name="AltAI8">
</g>
</g>
<g id="Layer-1" data-name="Layer">
<g id="Layer-2" data-name="AltAI8">
</g>
</g>
<g id="Layer-1" data-name="Layer">
<g id="Layer-2" data-name="AltAI8">
</g>
</g>
<g id="Layer-1" data-name="Layer">
<g id="Layer-2" data-name="AltAI8">
</g>
</g>
<g id="Layer-1" data-name="Layer">
<g id="Layer-2" data-name="AltAI8">
</g>
</g>
<g id="Layer-1" data-name="Layer">
<g id="Layer-2" data-name="AltAI8">
</g>
</g>
<g id="Layer-1" data-name="Layer">
<g id="Layer-2" data-name="AltAI8">
</g>
</g>
<g id="Layer-1" data-name="Layer">
<g id="Layer-2" data-name="AltAI8">
</g>
</g>
<g id="Layer-1" data-name="Layer">
<g id="Layer-2" data-name="AltAI8">
</g>
</g>
<g id="Layer-1" data-name="Layer">
<g id="Layer-2" data-name="AltAI8">
</g>
</g>
<g id="Layer-1" data-name="Layer">
<g id="Layer-2" data-name="AltAI8">
</g>
</g>
<g id="Layer-1" data-name="Layer">
<g id="Layer-2" data-name="AltAI8">
</g>
</g>
<g id="Layer-1" data-name="Layer">
<g id="Layer-2" data-name="AltAI8">
</g>
</g>
<g id="Layer-1" data-name="Layer">
<g id="Layer-2" data-name="AltAI8">
</g>
</g>
<g id="Layer-1" data-name="Layer">
<g id="Layer-2" data-name="AltAI8">
</g>
</g>
<g id="Layer-1" data-name="Layer">
<g id="Layer-2" data-name="AltAI8">
</g>
</g>
<g id="Layer-1" data-name="Layer">
<g id="Layer-2" data-name="AltAI8">
</g>
</g>
<g id="Layer-1" data-name="Layer">
<g id="Layer-2" data-name="AltAI8">
</g>
</g>
<g id="Layer-1" data-name="Layer">
<g id="Layer-2" data-name="AltAI8">
</g>
</g>
<g id="Layer-1" data-name="Layer">
<g id="Layer-2" data-name="AltAI8">
</g>
</g>
<g id="Layer-1" data-name="Layer">
<g id="Layer-2" data-name="AltAI8">
</g>
</g>
<g id="Layer-1" data-name="Layer">
<g id="Layer-2" data-name="AltAI8">
</g>
</g>
<g id="Layer-1" data-name="Layer">
<g id="Layer-2" data-name="AltAI8">
</g>
</g>
<g id="Layer-1" data-name="Layer">
<g id="Layer-2" data-name="AltAI8">
</g>
</g>
<g id="Layer-1" data-name="Layer">
<g id="Layer-2" data-name="AltAI8">
</g>
</g>
<g id="Layer-1" data-name="Layer">
<g id="Layer-2" data-name="AltAI8">
</g>
</g>
<g id="Layer-1" data-name="Layer">
<g id="Layer-2" data-name="AltAI8">
</g>
</g>
<g id="Layer-1" data-name="Layer">
<g id="Layer-2" data-name="AltAI8">
</g>
</g>
<g id="Layer-1" data-name="Layer">
<g id="Layer-2" data-name="AltAI8">
</g>
</g>
<g id="Layer-1" data-name="Layer">
<g id="Layer-2" data-name="AltAI8">
</g>
</g>
<g id="Layer-1" data-name="Layer">
<g id="Layer-2" data-name="AltAI8">
</g>
</g>
<g id="Layer-1" data-name="Layer">
<g id="Layer-2" data-name="AltAI8">
</g>
</g>
<g id="Layer-1" data-name="Layer">
<g id="Layer-2" data-name="AltAI8">
</g>
</g>
<g id="Layer-1" data-name="Layer">
<g id="Layer-2" data-name="AltAI8">
</g>
</g>
<g id="Layer-1" data-name="Layer">
<g id="Layer-2" data-name="AltAI8">
</g>
</g>
<g id="Layer-1" data-name="Layer">
<g id="Layer-2" data-name="AltAI8">
</g>
</g>
<g id="Layer-1" data-name="Layer">
<g id="Layer-2" data-name="AltAI8">
</g>
</g>
<g id="Layer-1" data-name="Layer">
<g id="Layer-2" data-name="AltAI8">
</g>
</g>
<g id="Layer-1" data-name="Layer">
<g id="Layer-2" data-name="AltAI8">
</g>
</g>
<g id="Layer-1" data-name="Layer">
<g id="Layer-2" data-name="AltAI8">
</g>
</g>
<g id="Layer-1" data-name="Layer">
<g id="Layer-2" data-name="AltAI8">
</g>
</g>
<g id="Layer-1" data-name="Layer">
<g id="Layer-2" data-name="AltAI8">
</g>
</g>
<g id="Layer-1" data-name="Layer">
<g id="Layer-2" data-name="AltAI8">
</g>
</g>
<g id="Layer-1" data-name="Layer">
<g id="Layer-2" data-name="AltAI8">
</g>
</g>
<g id="Layer-1" data-name="Layer">
<g id="Layer-2" data-name="AltAI8">
</g>
</g>
<g id="Layer-1" data-name="Layer">
<g id="Layer-2" data-name="AltAI8">
</g>
</g>
<g id="Layer-1" data-name="Layer">
<g id="Layer-2" data-name="AltAI8">
</g>
</g>
<g id="Layer-1" data-name="Layer">
<g id="Layer-2" data-name="AltAI8">
</g>
</g>
<g id="Layer-1" data-name="Layer">
<g id="Layer-2" data-name="AltAI8">
</g>
</g>
<g id="Layer-1" data-name="Layer">
<g id="Layer-2" data-name="AltAI8">
</g>
</g>
<g id="Layer-1" data-name="Layer">
<g id="Layer-2" data-name="AltAI8">
</g>
</g>
<g id="Layer-1" data-name="Layer">
<g id="Layer-2" data-name="AltAI8">
</g>
</g>
<g id="Layer-1" data-name="Layer">
<g id="Layer-2" data-name="AltAI8">
</g>
</g>
<g id="Layer-1" data-name="Layer">
<g id="Layer-2" data-name="AltAI8">
</g>
</g>
<g id="Layer-1" data-name="Layer">
<g id="Layer-2" data-name="AltAI8">
</g>
</g>
<g id="Layer-1" data-name="Layer">
<g id="Layer-2" data-name="AltAI8">
</g>
</g>
<g id="Layer-1" data-name="Layer">
<g id="Layer-2" data-name="AltAI8">
</g>
</g>
<g id="Layer-1" data-name="Layer">
<g id="Layer-2" data-name="AltAI8">
</g>
</g>
<g id="Layer-1" data-name="Layer">
<g id="Layer-2" data-name="AltAI8">
</g>
</g>
<g id="Layer-1" data-name="Layer">
<g id="Layer-2" data-name="AltAI8">
</g>
</g>
<g id="Layer-1" data-name="Layer">
<g id="Layer-2" data-name="AltAI8">
</g>
</g>
<g id="Layer-1" data-name="Layer">
<g id="Layer-2" data-name="AltAI8">
</g>
</g>
<g id="Layer-1" data-name="Layer">
<g id="Layer-2" data-name="AltAI8">
</g>
</g>
<g id="Layer-1" data-name="Layer">
<g id="Layer-2" data-name="AltAI8">
</g>
</g>
<g id="Layer-1" data-name="Layer">
<g id="Layer-2" data-name="AltAI8">
</g>
</g>
<g id="Layer-1" data-name="Layer">
<g id="Layer-2" data-name="AltAI8">
</g>
</g>
<g id="Layer-1" data-name="Layer">
<g id="Layer-2" data-name="AltAI8">
</g>
</g>
<g id="Layer-1" data-name="Layer">
<g id="Layer-2" data-name="AltAI8">
</g>
</g>
<g id="Layer-1" data-name="Layer">
<g id="Layer-2" data-name="AltAI8">
</g>
</g>
<g id="Layer-1" data-name="Layer">
<g id="Layer-2" data-name="AltAI8">
</g>
</g>
<g id="Layer-1" data-name="Layer">
<g id="Layer-2" data-name="AltAI8">
</g>
</g>
<g id="Layer-1" data-name="Layer">
<g id="Layer-2" data-name="AltAI8">
</g>
</g>
<g id="Layer-1" data-name="Layer">
<g id="Layer-2" data-name="AltAI8">
</g>
</g>
<g id="Layer-1" data-name="Layer">
<g id="Layer-2" data-name="AltAI8">
</g>
</g>
<g id="Layer-1" data-name="Layer">
<g id="Layer-2" data-name="AltAI8">
</g>
</g>
<g id="Layer-1" data-name="Layer">
<g id="Layer-2" data-name="AltAI8">
</g>
</g>
<g id="Layer-1" data-name="Layer">
<g id="Layer-2" data-name="AltAI8">
</g>
</g>
<g id="Layer-1" data-name="Layer">
<g id="Layer-2" data-name="AltAI8">
</g>
</g>
<g id="Layer-1" data-name="Layer">
<g id="Layer-2" data-name="AltAI8">
</g>
</g>
<g id="Layer-1" data-name="Layer">
<g id="Layer-2" data-name="AltAI8">
</g>
</g>
<g id="Layer-1" data-name="Layer">
<g id="Layer-2" data-name="AltAI8">
</g>
</g>
<g id="Layer-1" data-name="Layer">
<g id="Layer-2" data-name="AltAI8">
</g>
</g>
<g id="Layer-1" data-name="Layer">
<g id="Layer-2" data-name="AltAI8">
</g>
</g>
<g id="Layer-1" data-name="Layer">
<g id="Layer-2" data-name="AltAI8">
</g>
</g>
<g id="Layer-1" data-name="Layer">
<g id="Layer-2" data-name="AltAI8">
</g>
</g>
<g id="Layer-1" data-name="Layer">
<g id="Layer-2" data-name="AltAI8">
</g>
</g>
<g id="Layer-1" data-name="Layer">
<g id="Layer-2" data-name="AltAI8">
</g>
</g>
<g id="Layer-1" data-name="Layer">
<g id="Layer-2" data-name="AltAI8">
</g>
</g>
<g id="Layer-1" data-name="Layer">
<g id="Layer-2" data-name="AltAI8">
</g>
</g>
<g id="Layer-1" data-name="Layer">
<g id="Layer-2" data-name="AltAI8">
</g>
</g>
<g id="Layer-1" data-name="Layer">
<g id="Layer-2" data-name="AltAI8">
</g>
</g>
<g id="Layer-1" data-name="Layer">
<g id="Layer-2" data-name="AltAI8">
</g>
</g>
<g id="Layer-1" data-name="Layer">
<g id="Layer-2" data-name="AltAI8">
</g>
</g>
<g id="Layer-1" data-name="Layer">
<g id="Layer-2" data-name="AltAI8">
</g>
</g>
<g id="Layer-1" data-name="Layer">
<g id="Layer-2" data-name="AltAI8">
</g>
</g>
<g id="Layer-1" data-name="Layer">
<g id="Layer-2" data-name="AltAI8">
</g>
</g>
<g id="Layer-1" data-name="Layer">
<g id="Layer-2" data-name="AltAI8">
</g>
</g>
<g id="Layer-1" data-name="Layer">
<g id="Layer-2" data-name="AltAI8">
</g>
</g>
<g id="Layer-1" data-name="Layer">
<g id="Layer-2" data-name="AltAI8">
</g>
</g>
<g id="Layer-1" data-name="Layer">
<g id="Layer-2" data-name="AltAI8">
</g>
</g>
<g id="Layer-1" data-name="Layer">
<g id="Layer-2" data-name="AltAI8">
</g>
</g>
<g id="Layer-1" data-name="Layer">
<g id="Layer-2" data-name="AltAI8">
</g>
</g>
<g id="Layer-1" data-name="Layer">
<g id="Layer-2" data-name="AltAI8">
</g>
</g>
<g id="Layer-1" data-name="Layer">
<g id="Layer-2" data-name="AltAI8">
</g>
</g>
<g id="Layer-1" data-name="Layer">
<g id="Layer-2" data-name="AltAI8">
</g>
</g>
<g id="Layer-1" data-name="Layer">
<g id="Layer-2" data-name="AltAI8">
</g>
</g>
<g id="Layer-1" data-name="Layer">
<g id="Layer-2" data-name="AltAI8">
</g>
</g>
<g id="Layer-1" data-name="Layer">
<g id="Layer-2" data-name="AltAI8">
</g>
</g>
<g id="Layer-1" data-name="Layer">
<g id="Layer-2" data-name="AltAI8">
</g>
</g>
<g id="Layer-1" data-name="Layer">
<g id="Layer-2" data-name="AltAI8">
</g>
</g>
<g id="Layer-1" data-name="Layer">
<g id="Layer-2" data-name="AltAI8">
</g>
</g>
<g id="Layer-1" data-name="Layer">
<g id="Layer-2" data-name="AltAI8">
</g>
</g>
<g id="Layer-1" data-name="Layer">
<g id="Layer-2" data-name="AltAI8">
</g>
</g>
<g id="Layer-1" data-name="Layer">
<g id="Layer-2" data-name="AltAI8">
</g>
</g>
<g id="Layer-1" data-name="Layer">
<g id="Layer-2" data-name="AltAI8">
</g>
</g>
<g id="Layer-1" data-name="Layer">
<g id="Layer-2" data-name="AltAI8">
</g>
</g>
<g id="Layer-1" data-name="Layer">
<g id="Layer-2" data-name="AltAI8">
</g>
</g>
<g id="Layer-1" data-name="Layer">
<g id="Layer-2" data-name="AltAI8">
</g>
</g>
<g id="Layer-1" data-name="Layer">
<g id="Layer-2" data-name="AltAI8">
</g>
</g>
<g id="Layer-1" data-name="Layer">
<g id="Layer-2" data-name="AltAI8">
</g>
</g>
<g id="Layer-1" data-name="Layer">
<g id="Layer-2" data-name="AltAI8">
</g>
</g>
<g id="Layer-1" data-name="Layer">
<g id="Layer-2" data-name="AltAI8">
</g>
</g>
<g id="Layer-1" data-name="Layer">
<g id="Layer-2" data-name="AltAI8">
</g>
</g>
<g id="Layer-1" data-name="Layer">
<g id="Layer-2" data-name="AltAI8">
</g>
</g>
<g id="Layer-1" data-name="Layer">
<g id="Layer-2" data-name="AltAI8">
</g>
</g>
<g id="Layer-1" data-name="Layer">
<g id="Layer-2" data-name="AltAI8">
</g>
</g>
<g id="Layer-1" data-name="Layer">
<g id="Layer-2" data-name="AltAI8">
</g>
</g>
<g id="Layer-1" data-name="Layer">
<g id="Layer-2" data-name="AltAI8">
</g>
</g>
<g id="Layer-1" data-name="Layer">
<g id="Layer-2" data-name="AltAI8">
</g>
</g>
<g id="Layer-1" data-name="Layer">
<g id="Layer-2" data-name="AltAI8">
</g>
</g>
<g id="Layer-1" data-name="Layer">
<g id="Layer-2" data-name="AltAI8">
</g>
</g>
<g id="Layer-1" data-name="Layer">
<g id="Layer-2" data-name="AltAI8">
</g>
</g>
<g id="Layer-1" data-name="Layer">
<g id="Layer-2" data-name="AltAI8">
</g>
</g>
<g id="Layer-1" data-name="Layer">
<g id="Layer-2" data-name="AltAI8">
</g>
</g>
<g id="Layer-1" data-name="Layer">
<g id="Layer-2" data-name="AltAI8">
</g>
</g>
<g id="Layer-1" data-name="Layer">
<g id="Layer-2" data-name="AltAI8">
</g>
</g>
<g id="Layer-1" data-name="Layer">
<g id="Layer-2" data-name="AltAI8">
</g>
</g>
<g id="Layer-1" data-name="Layer">
<g id="Layer-2" data-name="AltAI8">
</g>
</g>
<g id="Layer-1" data-name="Layer">
<g id="Layer-2" data-name="AltAI8">
</g>
</g>
<g id="Layer-1" data-name="Layer">
<g id="Layer-2" data-name="AltAI8">
</g>
</g>
<g id="Layer-1" data-name="Layer">
<g id="Layer-2" data-name="AltAI8">
</g>
</g>
<g id="Layer-1" data-name="Layer">
<g id="Layer-2" data-name="AltAI8">
</g>
</g>
<g id="Layer-1" data-name="Layer">
<g id="Layer-2" data-name="AltAI8">
</g>
</g>
<g id="Layer-1" data-name="Layer">
<g id="Layer-2" data-name="AltAI8">
</g>
</g>
<g id="Layer-1" data-name="Layer">
<g id="Layer-2" data-name="AltAI8">
</g>
</g>
<g id="Layer-1" data-name="Layer">
<g id="Layer-2" data-name="AltAI8">
</g>
</g>
<g id="Layer-1" data-name="Layer">
<g id="Layer-2" data-name="AltAI8">
</g>
</g>
<g id="Layer-1" data-name="Layer">
<g id="Layer-2" data-name="AltAI8">
</g>
</g>
<g id="Layer-1" data-name="Layer">
<g id="Layer-2" data-name="AltAI8">
</g>
</g>
<g id="Layer-1" data-name="Layer">
<g id="Layer-2" data-name="AltAI8">
</g>
</g>
<g id="Layer-1" data-name="Layer">
<g id="Layer-2" data-name="AltAI8">
</g>
</g>
<g id="Layer-1" data-name="Layer">
<g id="Layer-2" data-name="AltAI8">
</g>
</g>
<g id="Layer-1" data-name="Layer">
<g id="Layer-2" data-name="AltAI8">
</g>
</g>
<g id="Layer-1" data-name="Layer">
<g id="Layer-2" data-name="AltAI8">
</g>
</g>
<g id="Layer-1" data-name="Layer">
<g id="Layer-2" data-name="AltAI8">
</g>
</g>
<g id="Layer-1" data-name="Layer">
<g id="Layer-2" data-name="AltAI8">
</g>
</g>
<g id="Layer-1" data-name="Layer">
<g id="Layer-2" data-name="AltAI8">
</g>
</g>
<g id="Layer-1" data-name="Layer">
<g id="Layer-2" data-name="AltAI8">
</g>
</g>
<g id="Layer-1" data-name="Layer">
<g id="Layer-2" data-name="AltAI8">
</g>
</g>
<g id="Layer-1" data-name="Layer">
<g id="Layer-2" data-name="AltAI8">
</g>
</g>
<g id="Layer-1" data-name="Layer">
<g id="Layer-2" data-name="AltAI8">
</g>
</g>
<g id="Layer-1" data-name="Layer">
<g id="Layer-2" data-name="AltAI8">
</g>
</g>
<g id="Layer-1" data-name="Layer">
<g id="Layer-2" data-name="AltAI8">
</g>
</g>
<g id="Layer-1" data-name="Layer">
<g id="Layer-2" data-name="AltAI8">
</g>
</g>
<g id="Layer-1" data-name="Layer">
<g id="Layer-2" data-name="AltAI8">
</g>
</g>
<g id="Layer-1" data-name="Layer">
<g id="Layer-2" data-name="AltAI8">
</g>
</g>
<g id="Layer-1" data-name="Layer">
<g id="Layer-2" data-name="AltAI8">
</g>
</g>
<g id="Layer-1" data-name="Layer">
<g id="Layer-2" data-name="AltAI8">
</g>
</g>
<g id="Layer-1" data-name="Layer">
<g id="Layer-2" data-name="AltAI8">
</g>
</g>
<g id="Layer-1" data-name="Layer">
<g id="Layer-2" data-name="AltAI8">
</g>
</g>
<g id="Layer-1" data-name="Layer">
<g id="Layer-2" data-name="AltAI8">
</g>
</g>
<g id="Layer-1" data-name="Layer">
<g id="Layer-2" data-name="AltAI8">
</g>
</g>
<g id="Layer-1" data-name="Layer">
<g id="Layer-2" data-name="AltAI8">
</g>
</g>
<g id="Layer-1" data-name="Layer">
<g id="Layer-2" data-name="AltAI8">
</g>
</g>
<g id="Layer-1" data-name="Layer">
<g id="Layer-2" data-name="AltAI8">
</g>
</g>
<g id="Layer-1" data-name="Layer">
<g id="Layer-2" data-name="AltAI8">
</g>
</g>
<g id="Layer-1" data-name="Layer">
<g id="Layer-2" data-name="AltAI8">
</g>
</g>
<g id="Layer-1" data-name="Layer">
<g id="Layer-2" data-name="AltAI8">
</g>
</g>
<g id="Layer-1" data-name="Layer">
<g id="Layer-2" data-name="AltAI8">
</g>
</g>
<g id="Layer-1" data-name="Layer">
<g id="Layer-2" data-name="AltAI8">
</g>
</g>
<g id="Layer-1" data-name="Layer">
<g id="Layer-2" data-name="AltAI8">
</g>
</g>
<g id="Layer-1" data-name="Layer">
<clipPath id="cp0">
<path transform="matrix(1,0,0,-1,-33.2552,81.85841)" d="M 0 114 L 299 114 L 299 0 L 0 0 Z "/>
</clipPath>
<g clip-path="url(#cp0)">
<path transform="matrix(1,0,0,-1,80.730609,37.129915)" d="M 0 0 C 0 .768 -.025 2.193 -.236 2.564 C -.324 2.715 -.547 2.801 -.855 2.826 L -1.166 2.85 C -1.24 2.938 -1.215 3.098 -1.141 3.148 C -.67 3.123 -.211 3.111 .271 3.111 C .793 3.111 1.127 3.123 1.574 3.148 C 1.672 3.086 1.66 2.926 1.598 2.85 L 1.301 2.826 C .99 2.801 .756 2.689 .68 2.527 C .508 2.119 .508 .695 .508 0 L .508 -1.402 C .508 -2.479 .334 -3.619 -.361 -4.361 C -.893 -4.945 -1.811 -5.268 -2.727 -5.268 C -3.582 -5.268 -4.437 -5.105 -5.045 -4.586 C -5.701 -4.041 -6.012 -3.137 -6.012 -1.662 L -6.012 1.264 C -6.012 2.553 -6.035 2.764 -6.756 2.826 L -7.064 2.85 C -7.139 2.9 -7.113 3.111 -7.039 3.148 C -6.42 3.123 -5.998 3.111 -5.504 3.111 C -4.994 3.111 -4.586 3.123 -3.979 3.148 C -3.904 3.111 -3.879 2.9 -3.953 2.85 L -4.252 2.826 C -4.971 2.764 -4.994 2.553 -4.994 1.264 L -4.994 -1.414 C -4.994 -3.408 -4.375 -4.721 -2.479 -4.721 C -.682 -4.721 0 -3.311 0 -1.426 Z " fill="#062d74"/>
<path transform="matrix(1,0,0,-1,96.923999,40.092817)" d="M 0 0 C 0 -.371 0 -1.846 .037 -2.168 C .012 -2.242 -.062 -2.305 -.199 -2.305 C -.346 -2.094 -.707 -1.66 -1.783 -.434 L -4.66 2.838 C -4.994 3.223 -5.836 4.238 -6.098 4.512 L -6.121 4.512 C -6.172 4.363 -6.184 4.076 -6.184 3.707 L -6.184 1.006 C -6.184 .422 -6.172 -1.189 -5.961 -1.561 C -5.887 -1.697 -5.639 -1.771 -5.328 -1.795 L -4.945 -1.834 C -4.871 -1.932 -4.883 -2.08 -4.969 -2.143 C -5.527 -2.119 -5.961 -2.105 -6.42 -2.105 C -6.939 -2.105 -7.273 -2.119 -7.709 -2.143 C -7.795 -2.08 -7.807 -1.908 -7.732 -1.834 L -7.398 -1.795 C -7.113 -1.758 -6.914 -1.684 -6.854 -1.547 C -6.68 -1.104 -6.691 .41 -6.691 1.006 L -6.691 4.586 C -6.691 4.934 -6.703 5.193 -6.965 5.479 C -7.139 5.652 -7.436 5.738 -7.732 5.775 L -7.943 5.801 C -8.018 5.875 -8.018 6.061 -7.92 6.111 C -7.398 6.074 -6.74 6.074 -6.52 6.074 C -6.32 6.074 -6.109 6.086 -5.949 6.111 C -5.701 5.479 -4.238 3.842 -3.83 3.385 L -2.627 2.033 C -1.771 1.08 -1.164 .385 -.582 -.211 L -.557 -.211 C -.508 -.148 -.508 .051 -.508 .311 L -.508 2.963 C -.508 3.545 -.52 5.156 -.756 5.527 C -.83 5.641 -1.029 5.715 -1.525 5.775 L -1.734 5.801 C -1.82 5.875 -1.809 6.074 -1.709 6.111 C -1.141 6.086 -.719 6.074 -.248 6.074 C .285 6.074 .607 6.086 1.027 6.111 C 1.127 6.049 1.127 5.875 1.053 5.801 L .881 5.775 C .484 5.715 .236 5.615 .186 5.516 C -.025 5.068 0 3.533 0 2.963 Z " fill="#062d74"/>
<path transform="matrix(1,0,0,-1,106.154499,35.903314)" d="M 0 0 C 0 1.314 -.025 1.525 -.756 1.586 L -1.066 1.611 C -1.141 1.662 -1.115 1.885 -1.041 1.922 C -.422 1.896 0 1.885 .52 1.885 C 1.016 1.885 1.437 1.896 2.057 1.922 C 2.131 1.885 2.154 1.662 2.08 1.611 L 1.771 1.586 C 1.041 1.525 1.016 1.314 1.016 0 L 1.016 -4.412 C 1.016 -5.725 1.041 -5.898 1.771 -5.984 L 2.08 -6.023 C 2.154 -6.072 2.131 -6.295 2.057 -6.332 C 1.437 -6.309 1.016 -6.295 .52 -6.295 C 0 -6.295 -.422 -6.309 -1.041 -6.332 C -1.115 -6.295 -1.141 -6.098 -1.066 -6.023 L -.756 -5.984 C -.025 -5.898 0 -5.725 0 -4.412 Z " fill="#062d74"/>
<path transform="matrix(1,0,0,-1,116.18959,35.333017)" d="M 0 0 C -.285 .693 -.471 .955 -1.004 1.016 L -1.227 1.041 C -1.312 1.115 -1.301 1.289 -1.201 1.352 C -.842 1.326 -.447 1.314 .086 1.314 C .633 1.314 1.066 1.326 1.586 1.352 C 1.674 1.301 1.699 1.115 1.611 1.041 L 1.426 1.016 C .955 .955 .855 .881 .842 .781 C .867 .656 1.078 -.014 1.463 -.955 C 2.033 -2.393 2.604 -3.816 3.223 -5.23 C 3.605 -4.412 4.127 -3.137 4.412 -2.479 C 4.771 -1.637 5.354 -.236 5.564 .297 C 5.664 .557 5.676 .693 5.676 .781 C 5.676 .867 5.553 .967 5.119 1.016 L 4.895 1.041 C 4.809 1.115 4.834 1.301 4.92 1.352 C 5.268 1.326 5.738 1.314 6.209 1.314 C 6.619 1.314 7.002 1.326 7.41 1.352 C 7.498 1.301 7.498 1.104 7.436 1.041 L 7.064 1.016 C 6.768 .992 6.58 .842 6.42 .582 C 6.072 0 5.59 -1.006 5.031 -2.268 L 4.363 -3.791 C 3.867 -4.934 3.285 -6.369 3.074 -7.027 C 3.037 -7.051 2.986 -7.064 2.938 -7.064 C 2.875 -7.064 2.813 -7.051 2.752 -7.027 C 2.615 -6.506 2.393 -5.9 2.182 -5.379 Z " fill="#062d74"/>
<path transform="matrix(1,0,0,-1,131.10759,35.879915)" d="M 0 0 C 0 1.291 -.025 1.477 -.754 1.562 L -.953 1.588 C -1.027 1.639 -1.002 1.861 -.928 1.898 C -.395 1.873 .025 1.861 .533 1.861 L 2.863 1.861 C 3.656 1.861 4.389 1.861 4.537 1.898 C 4.611 1.687 4.686 .795 4.736 .248 C 4.686 .174 4.488 .15 4.426 .225 C 4.24 .807 4.129 1.24 3.482 1.402 C 3.223 1.465 2.826 1.477 2.281 1.477 L 1.389 1.477 C 1.018 1.477 1.018 1.451 1.018 .98 L 1.018 -1.498 C 1.018 -1.846 1.055 -1.846 1.426 -1.846 L 2.146 -1.846 C 2.664 -1.846 3.049 -1.82 3.197 -1.771 C 3.348 -1.721 3.434 -1.646 3.496 -1.336 L 3.596 -.828 C 3.656 -.754 3.867 -.754 3.918 -.84 C 3.918 -1.139 3.867 -1.623 3.867 -2.094 C 3.867 -2.539 3.918 -3.012 3.918 -3.281 C 3.867 -3.369 3.656 -3.369 3.596 -3.295 L 3.482 -2.813 C 3.434 -2.59 3.348 -2.404 3.1 -2.342 C 2.926 -2.291 2.627 -2.279 2.146 -2.279 L 1.426 -2.279 C 1.055 -2.279 1.018 -2.291 1.018 -2.615 L 1.018 -4.361 C 1.018 -5.018 1.055 -5.439 1.252 -5.648 C 1.402 -5.797 1.662 -5.934 2.752 -5.934 C 3.707 -5.934 4.066 -5.885 4.34 -5.748 C 4.562 -5.625 4.896 -5.191 5.217 -4.547 C 5.305 -4.484 5.479 -4.521 5.527 -4.635 C 5.441 -5.068 5.131 -6.021 4.969 -6.355 C 3.855 -6.332 2.752 -6.318 1.65 -6.318 L .533 -6.318 C 0 -6.318 -.42 -6.332 -1.152 -6.355 C -1.227 -6.318 -1.25 -6.121 -1.176 -6.047 L -.768 -6.008 C -.062 -5.947 0 -5.76 0 -4.461 Z " fill="#062d74"/>
<path transform="matrix(1,0,0,-1,145.5549,37.663114)" d="M 0 0 C 0 -.223 0 -.359 .037 -.41 C .074 -.447 .26 -.471 .893 -.471 C 1.34 -.471 1.811 -.422 2.168 -.148 C 2.502 .111 2.788 .545 2.788 1.387 C 2.788 2.367 2.182 3.297 .805 3.297 C .037 3.297 0 3.248 0 2.9 Z M -1.016 1.771 C -1.016 2.949 -1.053 3.16 -1.561 3.223 L -1.959 3.271 C -2.045 3.334 -2.045 3.533 -1.945 3.582 C -1.252 3.645 -.396 3.682 .818 3.682 C 1.588 3.682 2.317 3.619 2.887 3.309 C 3.483 3 3.917 2.441 3.917 1.572 C 3.917 .396 2.987 -.248 2.368 -.496 C 2.305 -.57 2.368 -.695 2.428 -.795 C 3.42 -2.393 4.079 -3.385 4.92 -4.09 C 5.131 -4.275 5.442 -4.412 5.776 -4.436 C 5.838 -4.461 5.85 -4.561 5.788 -4.609 C 5.676 -4.646 5.477 -4.672 5.243 -4.672 C 4.19 -4.672 3.557 -4.361 2.678 -3.111 C 2.354 -2.652 1.848 -1.797 1.463 -1.24 C 1.277 -.967 1.078 -.844 .582 -.844 C .023 -.844 0 -.855 0 -1.117 L 0 -2.678 C 0 -3.977 .023 -4.127 .744 -4.225 L 1.004 -4.264 C 1.078 -4.324 1.055 -4.535 .98 -4.572 C .422 -4.549 0 -4.535 -.496 -4.535 C -1.016 -4.535 -1.463 -4.549 -2.045 -4.572 C -2.119 -4.535 -2.145 -4.35 -2.07 -4.264 L -1.76 -4.225 C -1.041 -4.139 -1.016 -3.977 -1.016 -2.678 Z " fill="#062d74"/>
<path transform="matrix(1,0,0,-1,159.5163,42.397516)" d="M 0 0 C -1.041 0 -1.699 .322 -1.934 .459 C -2.082 .732 -2.242 1.611 -2.268 2.193 C -2.205 2.281 -2.02 2.305 -1.969 2.23 C -1.785 1.598 -1.277 .385 .162 .385 C 1.201 .385 1.711 1.064 1.711 1.809 C 1.711 2.355 1.598 2.963 .695 3.543 L -.482 4.312 C -1.104 4.723 -1.822 5.428 -1.822 6.443 C -1.822 7.621 -.904 8.576 .707 8.576 C 1.09 8.576 1.535 8.502 1.859 8.416 C 2.02 8.365 2.193 8.342 2.293 8.342 C 2.404 8.043 2.516 7.35 2.516 6.828 C 2.467 6.754 2.268 6.717 2.207 6.791 C 2.045 7.387 1.711 8.193 .521 8.193 C -.693 8.193 -.955 7.387 -.955 6.816 C -.955 6.096 -.359 5.578 .1 5.293 L 1.09 4.672 C 1.871 4.189 2.641 3.471 2.641 2.293 C 2.641 .93 1.611 0 0 0 " fill="#062d74"/>
<path transform="matrix(1,0,0,-1,170.5788,35.903314)" d="M 0 0 C 0 1.314 -.023 1.525 -.754 1.586 L -1.064 1.611 C -1.139 1.662 -1.113 1.885 -1.039 1.922 C -.418 1.896 0 1.885 .521 1.885 C 1.018 1.885 1.439 1.896 2.061 1.922 C 2.135 1.885 2.16 1.662 2.084 1.611 L 1.773 1.586 C 1.043 1.525 1.018 1.314 1.018 0 L 1.018 -4.412 C 1.018 -5.725 1.043 -5.898 1.773 -5.984 L 2.084 -6.023 C 2.16 -6.072 2.135 -6.295 2.061 -6.332 C 1.439 -6.309 1.018 -6.295 .521 -6.295 C 0 -6.295 -.418 -6.309 -1.039 -6.332 C -1.113 -6.295 -1.139 -6.098 -1.064 -6.023 L -.754 -5.984 C -.023 -5.898 0 -5.725 0 -4.412 Z " fill="#062d74"/>
<path transform="matrix(1,0,0,-1,184.3385,40.340814)" d="M 0 0 C 0 -1.299 .023 -1.486 .742 -1.547 L 1.141 -1.586 C 1.215 -1.635 1.189 -1.857 1.115 -1.895 C .408 -1.871 -.014 -1.857 -.51 -1.857 C -1.006 -1.857 -1.437 -1.871 -2.232 -1.895 C -2.307 -1.857 -2.33 -1.646 -2.232 -1.586 L -1.785 -1.547 C -1.08 -1.486 -1.018 -1.299 -1.018 0 L -1.018 5.541 C -1.018 5.926 -1.018 5.937 -1.389 5.937 L -2.07 5.937 C -2.604 5.937 -3.285 5.912 -3.596 5.627 C -3.891 5.354 -4.016 5.082 -4.152 4.771 C -4.25 4.697 -4.426 4.76 -4.475 4.857 C -4.275 5.416 -4.09 6.211 -4.004 6.705 C -3.965 6.729 -3.805 6.742 -3.768 6.705 C -3.695 6.309 -3.285 6.322 -2.715 6.322 L 2.305 6.322 C 2.975 6.322 3.086 6.346 3.271 6.668 C 3.334 6.691 3.471 6.68 3.494 6.631 C 3.357 6.123 3.271 5.119 3.309 4.746 C 3.26 4.648 3.049 4.648 2.986 4.723 C 2.949 5.031 2.861 5.49 2.676 5.627 C 2.391 5.838 1.92 5.937 1.238 5.937 L .359 5.937 C -.014 5.937 0 5.926 0 5.516 Z " fill="#062d74"/>
<path transform="matrix(1,0,0,-1,198.4616,40.315416)" d="M 0 0 C 0 -1.324 .074 -1.523 .744 -1.572 L 1.217 -1.611 C 1.291 -1.686 1.266 -1.883 1.191 -1.92 C .422 -1.896 0 -1.883 -.494 -1.883 C -1.016 -1.883 -1.461 -1.896 -2.119 -1.92 C -2.193 -1.883 -2.219 -1.686 -2.145 -1.611 L -1.758 -1.572 C -1.039 -1.498 -1.016 -1.324 -1.016 0 L -1.016 .633 C -1.016 1.314 -1.053 1.475 -1.412 2.168 L -2.873 5.02 C -3.295 5.838 -3.48 5.9 -3.854 5.961 L -4.201 6.023 C -4.275 6.111 -4.262 6.283 -4.176 6.334 C -3.779 6.309 -3.332 6.297 -2.736 6.297 C -2.168 6.297 -1.723 6.309 -1.412 6.334 C -1.301 6.297 -1.301 6.098 -1.375 6.023 L -1.535 5.998 C -1.969 5.937 -2.057 5.875 -2.057 5.775 C -2.057 5.652 -1.734 4.945 -1.672 4.82 C -1.213 3.904 -.754 2.926 -.27 2.068 C .111 2.727 .521 3.445 .893 4.164 C 1.24 4.809 1.699 5.652 1.699 5.801 C 1.699 5.875 1.477 5.961 1.178 5.998 L .955 6.023 C .869 6.111 .881 6.283 .98 6.334 C 1.426 6.309 1.787 6.297 2.17 6.297 C 2.553 6.297 2.9 6.309 3.322 6.334 C 3.422 6.271 3.434 6.098 3.348 6.023 L 3 5.961 C 2.357 5.85 1.984 5.068 1.365 4.002 L .584 2.652 C .037 1.709 0 1.598 0 .645 Z " fill="#062d74"/>
</g>
<clipPath id="cp1">
<path transform="matrix(1,0,0,-1,-33.2552,81.85841)" d="M 38.024 38.264 L 73.024997 38.264 L 73.024997 75.976 L 38.024 75.976 Z "/>
</clipPath>
<g clip-path="url(#cp1)">
<path transform="matrix(1,0,0,-1,19.233902,28.588913)" d="M 0 0 C -.628 .242 -1.271 .434 -1.924 .574 C -2.064 .123 -2.249 -.314 -2.474 -.734 C -1.952 -.844 -1.435 -.99 -.93 -1.178 C -.568 -.832 -.255 -.436 0 0 M -8.386 -1.178 C -7.885 -.992 -7.372 -.844 -6.849 -.736 C -7.076 -.314 -7.262 .123 -7.401 .572 C -8.052 .432 -8.691 .24 -9.317 0 C -9.062 -.436 -8.748 -.832 -8.386 -1.178 M -9.317 5.449 C -8.691 5.207 -8.052 5.015 -7.401 4.875 C -7.262 5.324 -7.076 5.761 -6.851 6.181 C -7.372 6.291 -7.885 6.437 -8.386 6.625 C -8.748 6.279 -9.062 5.882 -9.317 5.449 M -.93 6.625 C -1.435 6.437 -1.949 6.289 -2.474 6.179 C -2.247 5.759 -2.064 5.324 -1.924 4.873 C -1.271 5.013 -.628 5.205 0 5.449 C -.255 5.882 -.568 6.279 -.93 6.625 M .73 2.978 C .697 3.695 .526 4.376 .237 4.994 C -.423 4.736 -1.1 4.531 -1.787 4.382 C -1.679 3.923 -1.616 3.453 -1.6 2.978 Z M -1.787 1.064 C -1.1 .916 -.423 .711 .237 .453 C .526 1.07 .697 1.752 .73 2.469 L -1.6 2.469 C -1.616 1.994 -1.679 1.523 -1.787 1.064 M -2.286 1.164 C -2.186 1.59 -2.124 2.027 -2.108 2.469 L -4.404 2.469 L -4.404 1.371 C -3.689 1.357 -2.981 1.289 -2.286 1.164 M -3 -.639 C -2.763 -.219 -2.572 .221 -2.426 .672 C -3.077 .785 -3.736 .848 -4.404 .861 L -4.404 -.514 C -3.935 -.525 -3.465 -.566 -3 -.639 M -3.884 -2.617 C -2.948 -2.48 -2.093 -2.107 -1.376 -1.559 C -1.822 -1.406 -2.28 -1.285 -2.741 -1.197 C -3.062 -1.705 -3.443 -2.182 -3.884 -2.617 M -3.295 -1.107 C -3.662 -1.059 -4.033 -1.033 -4.404 -1.021 L -4.404 -2.41 C -3.979 -2.012 -3.607 -1.576 -3.295 -1.107 M -6.583 -1.199 C -7.043 -1.287 -7.496 -1.406 -7.941 -1.559 C -7.228 -2.105 -6.374 -2.479 -5.442 -2.615 C -5.882 -2.18 -6.263 -1.705 -6.583 -1.199 M -6.031 -1.111 C -5.716 -1.58 -5.342 -2.018 -4.914 -2.418 L -4.914 -1.021 C -5.286 -1.033 -5.661 -1.061 -6.031 -1.111 M -6.896 .672 C -6.752 .219 -6.561 -.221 -6.323 -.639 C -5.856 -.566 -5.385 -.525 -4.914 -.514 L -4.914 .861 C -5.583 .848 -6.245 .783 -6.896 .672 M -7.037 1.164 C -6.34 1.289 -5.631 1.357 -4.914 1.371 L -4.914 2.469 L -7.217 2.469 C -7.199 2.027 -7.141 1.59 -7.037 1.164 M -10.047 2.469 C -10.014 1.75 -9.843 1.07 -9.555 .453 C -8.896 .711 -8.224 .914 -7.537 1.064 C -7.646 1.523 -7.709 1.994 -7.725 2.469 Z M -7.537 4.382 C -8.224 4.533 -8.896 4.736 -9.555 4.994 C -9.843 4.376 -10.014 3.695 -10.047 2.978 L -7.725 2.978 C -7.709 3.453 -7.646 3.923 -7.537 4.382 M -7.039 4.285 C -7.141 3.857 -7.201 3.419 -7.217 2.978 L -4.914 2.978 L -4.914 4.078 C -5.631 4.089 -6.341 4.16 -7.039 4.285 M -6.325 6.083 C -6.563 5.667 -6.752 5.228 -6.898 4.777 C -6.245 4.664 -5.583 4.597 -4.914 4.585 L -4.914 5.958 C -5.388 5.97 -5.861 6.011 -6.325 6.083 M -5.442 8.062 C -6.374 7.927 -7.228 7.552 -7.941 7.005 C -7.496 6.853 -7.043 6.734 -6.583 6.648 C -6.263 7.152 -5.882 7.628 -5.442 8.062 M -6.031 6.556 C -5.661 6.507 -5.286 6.478 -4.914 6.47 L -4.914 7.865 C -5.342 7.466 -5.716 7.027 -6.031 6.556 M -2.741 6.646 C -2.28 6.734 -1.822 6.853 -1.376 7.005 C -2.093 7.554 -2.948 7.929 -3.884 8.064 C -3.443 7.63 -3.062 7.152 -2.741 6.646 M -3.294 6.556 C -3.607 7.023 -3.979 7.46 -4.404 7.857 L -4.404 6.47 C -4.033 6.478 -3.662 6.505 -3.294 6.556 M -2.426 4.775 C -2.57 5.226 -2.761 5.666 -2.998 6.083 C -3.461 6.011 -3.932 5.97 -4.404 5.958 L -4.404 4.585 C -3.736 4.597 -3.077 4.664 -2.426 4.775 M -4.404 2.978 L -2.108 2.978 C -2.124 3.419 -2.185 3.855 -2.286 4.283 C -2.981 4.16 -3.689 4.089 -4.404 4.078 Z M -4.659 8.635 C -7.918 8.635 -10.57 5.984 -10.57 2.724 C -10.57 -.537 -7.918 -3.188 -4.659 -3.188 C -1.399 -3.188 1.253 -.537 1.253 2.724 C 1.253 5.984 -1.399 8.635 -4.659 8.635 M 2.272 11.616 C -3.175 11.565 -8.614 10.981 -13.917 9.854 C -11.579 -4.953 -2.326 -12.164 2.272 -14.703 Z " fill="#062d74" fill-rule="evenodd"/>
<path transform="matrix(1,0,0,-1,22.2653,8.447815)" d="M 0 0 C -2.642 .972 -6.425 1.183 -8.724 .701 L -9.726 -.077 L -9.994 -.118 C -10.086 -.13 -10.156 -.194 -10.186 -.251 L -12.982 -6.431 C -13.072 -6.603 -12.932 -6.748 -12.771 -6.717 C -8.515 -5.908 -4.002 -5.659 .002 -5.659 L .006 -5.659 C 4.009 -5.659 8.523 -5.908 12.779 -6.717 C 12.939 -6.748 13.082 -6.603 12.991 -6.431 L 10.194 -.251 C 10.164 -.194 10.093 -.13 10.003 -.118 L 9.734 -.077 L 8.731 .701 C 6.433 1.183 2.648 .972 .008 0 Z M -17.494 -3.106 L -17.496 -.068 C -17.496 .344 -17.21 .688 -16.829 .784 L -16.808 .79 C -11.386 1.95 -5.762 2.565 .004 2.565 C 5.763 2.565 11.38 1.952 16.794 .795 L 16.807 .79 C 17.204 .708 17.504 .354 17.504 -.068 L 17.503 -3.106 C 17.503 -5.103 17.382 -6.985 17.166 -8.768 C 5.928 -6.395 -5.9 -6.394 -17.156 -8.772 C -17.373 -6.987 -17.494 -5.104 -17.494 -3.106 " fill="#062d74"/>
<path transform="matrix(1,0,0,-1,22.055302,13.261414)" d="M 0 0 C -3.445 1.129 -7.395 1.299 -10.205 .768 L -8.815 4.719 L -9.738 4.02 L -11.654 -.969 C -9.098 -.554 -3.324 -.087 -.465 -.126 C -.348 -.074 -.205 0 0 0 " fill="#062d74"/>
<path transform="matrix(1,0,0,-1,22.440102,13.261414)" d="M 0 0 C 3.445 1.129 7.4 1.299 10.211 .768 L 8.816 4.719 L 9.739 4.02 L 11.656 -.969 C 9.1 -.554 3.326 -.087 .465 -.126 C .35 -.074 .207 0 0 0 " fill="#062d74"/>
<path transform="matrix(1,0,0,-1,23.032902,28.116314)" d="M 0 0 L 0 -15.174 C .924 -14.666 2.035 -13.963 3.24 -13.055 L 3.24 -2.156 Z " fill="#062d74"/>
<path transform="matrix(1,0,0,-1,26.273201,17.070115)" d="M 0 0 C -1.079 .051 -2.16 .088 -3.24 .098 L -3.24 -3.503 L 0 -5.658 Z " fill="#062d74"/>
<path transform="matrix(1,0,0,-1,32.751905,27.042016)" d="M 0 0 L 0 9.397 C -1.076 9.534 -2.155 9.659 -3.238 9.755 L -3.238 2.158 Z " fill="#062d74"/>
<path transform="matrix(1,0,0,-1,29.5135,32.428915)" d="M 0 0 L 0 -5.928 C 1.089 -4.846 2.187 -3.592 3.238 -2.166 L 3.238 -2.156 Z " fill="#062d74"/>
<path transform="matrix(1,0,0,-1,32.751905,34.595014)" d="M 0 0 L .006 .006 L 0 .01 Z " fill="#062d74"/>
<path transform="matrix(1,0,0,-1,35.999105,29.202313)" d="M 0 0 C 1.431 2.967 2.586 6.433 3.224 10.471 C 2.151 10.699 1.075 10.901 -.009 11.082 L -.009 .006 Z " fill="#062d74"/>
<path transform="matrix(1,0,0,-1,26.273201,22.729912)" d="M 0 0 L 0 -7.542 L 3.24 -9.699 L 3.24 -2.154 Z " fill="#062d74"/>
<path transform="matrix(1,0,0,-1,35.9903,29.196415)" d="M 0 0 L -3.238 2.154 L -3.238 -5.389 L -3.232 -5.393 C -2.075 -3.824 -.974 -2.037 0 -.023 Z " fill="#062d74"/>
<path transform="matrix(1,0,0,-1,35.9903,29.219914)" d="M 0 0 C .002 .006 .005 .012 .009 .018 L 0 .023 Z " fill="#062d74"/>
</g>
<clipPath id="cp2">
<path transform="matrix(1,0,0,-1,-33.2552,81.85841)" d="M 80.999 49.92 L 260.999 49.92 L 260.999 74.5 L 80.999 74.5 Z "/>
</clipPath>
<g clip-path="url(#cp2)">
<path transform="matrix(1,0,0,-1,52.892705,11.768616)" d="M 0 0 C 0 3.158 -.285 3.5 -1.963 3.643 L -2.674 3.699 C -2.846 3.813 -2.787 4.324 -2.617 4.41 C -.966 4.354 0 4.324 1.194 4.324 C 2.332 4.324 3.3 4.354 4.437 4.41 C 4.609 4.324 4.666 3.813 4.494 3.699 L 4.069 3.643 C 2.391 3.414 2.332 3.016 2.332 0 L 2.332 -10.555 C 2.332 -12.801 2.219 -14.764 1.679 -16.072 C .739 -18.35 -1.28 -20.17 -3.925 -20.17 C -4.267 -20.17 -5.148 -20.142 -5.148 -19.572 C -5.148 -19.089 -4.723 -18.264 -4.126 -18.264 C -3.784 -18.264 -3.442 -18.32 -3.072 -18.434 C -2.674 -18.549 -2.275 -18.633 -1.878 -18.633 C -1.28 -18.633 -.938 -18.293 -.74 -17.895 C -.086 -16.557 0 -12.289 0 -10.754 Z " fill="#062d74"/>
<path transform="matrix(1,0,0,-1,71.8,18.971714)" d="M 0 0 C 0 3.959 -1.753 8.231 -6.337 8.231 C -8.833 8.231 -12.072 6.527 -12.072 1.271 C -12.072 -2.279 -10.344 -6.889 -5.616 -6.889 C -2.736 -6.889 0 -4.729 0 0 M -14.474 .503 C -14.474 5.303 -10.872 8.976 -5.929 8.976 C -.385 8.976 2.4 4.967 2.4 .743 C 2.4 -4.104 -1.296 -7.633 -5.929 -7.633 C -11.257 -7.633 -14.474 -3.816 -14.474 .503 " fill="#062d74"/>
<path transform="matrix(1,0,0,-1,79.651508,18.468815)" d="M 0 0 C -1.151 0 -1.2 -.048 -1.2 -.768 L -1.2 -4.151 C -1.2 -6.671 -1.079 -7.007 .264 -7.151 L .96 -7.224 C 1.104 -7.319 1.056 -7.751 .911 -7.823 C -.385 -7.774 -1.2 -7.751 -2.137 -7.751 C -3.168 -7.751 -3.983 -7.8 -4.92 -7.823 C -5.064 -7.751 -5.111 -7.367 -4.967 -7.224 L -4.56 -7.151 C -3.217 -6.913 -3.168 -6.671 -3.168 -4.151 L -3.168 4.489 C -3.168 7.009 -3.335 7.417 -4.585 7.513 L -5.209 7.561 C -5.352 7.657 -5.303 8.09 -5.16 8.161 C -3.983 8.137 -3.168 8.09 -2.137 8.09 C -1.2 8.09 -.385 8.113 .647 8.161 C .792 8.09 .841 7.657 .694 7.561 L .24 7.513 C -1.151 7.368 -1.2 7.009 -1.2 4.489 L -1.2 1.729 C -1.2 .985 -1.151 .96 0 .96 L 6.864 .96 C 8.016 .96 8.064 .985 8.064 1.729 L 8.064 4.489 C 8.064 7.009 8.016 7.368 6.601 7.513 L 6.144 7.561 C 5.999 7.657 6.048 8.09 6.192 8.161 C 7.295 8.113 8.11 8.09 9.097 8.09 C 10.031 8.09 10.849 8.113 11.929 8.161 C 12.07 8.09 12.119 7.657 11.978 7.561 L 11.472 7.513 C 10.08 7.368 10.031 7.009 10.031 4.489 L 10.031 -4.151 C 10.031 -6.671 10.08 -6.983 11.472 -7.151 L 12.047 -7.224 C 12.191 -7.319 12.143 -7.751 12 -7.823 C 10.849 -7.774 10.031 -7.751 9.097 -7.751 C 8.11 -7.751 7.248 -7.774 6.192 -7.823 C 6.048 -7.751 5.999 -7.367 6.144 -7.224 L 6.601 -7.151 C 8.064 -6.913 8.064 -6.671 8.064 -4.151 L 8.064 -.768 C 8.064 -.048 8.016 0 6.864 0 Z " fill="#062d74"/>
<path transform="matrix(1,0,0,-1,108.092899,22.139714)" d="M 0 0 C 0 -.721 0 -3.577 .071 -4.201 C .024 -4.344 -.119 -4.465 -.383 -4.465 C -.672 -4.057 -1.368 -3.217 -3.457 -.842 L -9.024 5.496 C -9.671 6.239 -11.305 8.207 -11.808 8.735 L -11.856 8.735 C -11.952 8.447 -11.976 7.896 -11.976 7.176 L -11.976 1.943 C -11.976 .816 -11.952 -2.304 -11.544 -3.023 C -11.399 -3.289 -10.92 -3.433 -10.32 -3.48 L -9.577 -3.553 C -9.431 -3.745 -9.456 -4.033 -9.624 -4.152 C -10.703 -4.104 -11.544 -4.08 -12.433 -4.08 C -13.439 -4.08 -14.087 -4.104 -14.929 -4.152 C -15.097 -4.033 -15.12 -3.696 -14.976 -3.553 L -14.327 -3.48 C -13.775 -3.408 -13.393 -3.266 -13.271 -3 C -12.936 -2.136 -12.959 .791 -12.959 1.943 L -12.959 8.879 C -12.959 9.551 -12.984 10.056 -13.488 10.607 C -13.824 10.943 -14.399 11.111 -14.976 11.184 L -15.383 11.231 C -15.527 11.375 -15.527 11.735 -15.336 11.832 C -14.327 11.761 -13.055 11.761 -12.624 11.761 C -12.239 11.761 -11.831 11.784 -11.519 11.832 C -11.039 10.607 -8.207 7.439 -7.417 6.552 L -5.088 3.937 C -3.432 2.088 -2.257 .744 -1.129 -.408 L -1.08 -.408 C -.984 -.289 -.984 .096 -.984 .6 L -.984 5.736 C -.984 6.863 -1.008 9.983 -1.464 10.703 C -1.608 10.92 -1.991 11.064 -2.951 11.184 L -3.359 11.231 C -3.527 11.375 -3.504 11.761 -3.313 11.832 C -2.208 11.784 -1.392 11.761 -.48 11.761 C .552 11.761 1.177 11.784 1.992 11.832 C 2.184 11.712 2.184 11.375 2.041 11.231 L 1.703 11.184 C .937 11.064 .456 10.871 .358 10.68 C -.047 9.815 0 6.84 0 5.736 Z " fill="#062d74"/>
<path transform="matrix(1,0,0,-1,114.4377,26.604516)" d="M 0 0 C -2.017 0 -3.289 .624 -3.746 .888 C -4.032 1.416 -4.345 3.12 -4.394 4.248 C -4.272 4.416 -3.913 4.465 -3.817 4.32 C -3.457 3.097 -2.473 .744 .31 .744 C 2.326 .744 3.312 2.064 3.312 3.505 C 3.312 4.561 3.095 5.737 1.342 6.864 L -.937 8.353 C -2.138 9.145 -3.529 10.514 -3.529 12.48 C -3.529 14.761 -1.753 16.608 1.365 16.608 C 2.111 16.608 2.976 16.464 3.599 16.297 C 3.91 16.2 4.246 16.152 4.437 16.152 C 4.654 15.576 4.871 14.232 4.871 13.224 C 4.775 13.08 4.391 13.01 4.27 13.152 C 3.959 14.305 3.312 15.864 1.007 15.864 C -1.345 15.864 -1.849 14.305 -1.849 13.2 C -1.849 11.809 -.697 10.8 .19 10.248 L 2.111 9.049 C 3.624 8.112 5.111 6.721 5.111 4.44 C 5.111 1.801 3.118 0 0 0 " fill="#062d74"/>
<path transform="matrix(1,0,0,-1,133.79309,17.031311)" d="M 0 0 C -1.366 0 -1.423 -.057 -1.423 -.91 L -1.423 -4.922 C -1.423 -7.909 -1.28 -8.308 .312 -8.478 L 1.138 -8.563 C 1.308 -8.677 1.251 -9.188 1.082 -9.274 C -.454 -9.216 -1.423 -9.188 -2.531 -9.188 C -3.755 -9.188 -4.723 -9.245 -5.831 -9.274 C -6.003 -9.188 -6.06 -8.734 -5.888 -8.563 L -5.405 -8.478 C -3.812 -8.194 -3.755 -7.909 -3.755 -4.922 L -3.755 5.32 C -3.755 8.308 -3.956 8.791 -5.433 8.905 L -6.173 8.962 C -6.343 9.075 -6.288 9.587 -6.116 9.673 C -4.723 9.645 -3.755 9.587 -2.531 9.587 C -1.423 9.587 -.454 9.616 .768 9.673 C .939 9.587 .996 9.075 .824 8.962 L .283 8.905 C -1.366 8.733 -1.423 8.308 -1.423 5.32 L -1.423 2.048 C -1.423 1.166 -1.366 1.139 0 1.139 L 8.136 1.139 C 9.502 1.139 9.558 1.166 9.558 2.048 L 9.558 5.32 C 9.558 8.308 9.502 8.733 7.822 8.905 L 7.282 8.962 C 7.111 9.075 7.168 9.587 7.34 9.673 C 8.647 9.616 9.615 9.587 10.782 9.587 C 11.891 9.587 12.858 9.616 14.139 9.673 C 14.309 9.587 14.366 9.075 14.194 8.962 L 13.598 8.905 C 11.948 8.733 11.891 8.308 11.891 5.32 L 11.891 -4.922 C 11.891 -7.909 11.948 -8.278 13.598 -8.478 L 14.28 -8.563 C 14.451 -8.677 14.394 -9.188 14.223 -9.274 C 12.858 -9.216 11.891 -9.188 10.782 -9.188 C 9.615 -9.188 8.591 -9.216 7.34 -9.274 C 7.168 -9.188 7.111 -8.734 7.282 -8.563 L 7.822 -8.478 C 9.558 -8.194 9.558 -7.909 9.558 -4.922 L 9.558 -.91 C 9.558 -.057 9.502 0 8.136 0 Z " fill="#062d74"/>
<path transform="matrix(1,0,0,-1,162.3664,18.971714)" d="M 0 0 C 0 3.959 -1.752 8.231 -6.337 8.231 C -8.832 8.231 -12.072 6.527 -12.072 1.271 C -12.072 -2.279 -10.344 -6.889 -5.616 -6.889 C -2.735 -6.889 0 -4.729 0 0 M -14.473 .503 C -14.473 5.303 -10.872 8.976 -5.928 8.976 C -.385 8.976 2.399 4.967 2.399 .743 C 2.399 -4.104 -1.296 -7.633 -5.928 -7.633 C -11.256 -7.633 -14.473 -3.816 -14.473 .503 " fill="#062d74"/>
<path transform="matrix(1,0,0,-1,169.1105,22.620114)" d="M 0 0 C 0 -2.52 .048 -2.832 1.582 -3 L 2.231 -3.072 C 2.375 -3.191 2.328 -3.6 2.184 -3.672 C .815 -3.623 .024 -3.6 -.937 -3.6 C -1.945 -3.6 -2.809 -3.623 -3.864 -3.672 C -4.008 -3.6 -4.057 -3.216 -3.912 -3.072 L -3.409 -3 C -2.017 -2.809 -1.969 -2.52 -1.969 0 L -1.969 8.855 C -1.969 10.896 -2.017 11.305 -3.097 11.424 L -3.96 11.52 C -4.128 11.664 -4.104 12.024 -3.912 12.12 C -2.641 12.288 -1.153 12.313 .84 12.313 C 2.831 12.313 4.319 12.049 5.447 11.352 C 6.551 10.655 7.367 9.408 7.367 7.752 C 7.367 5.544 6 4.44 4.967 3.936 C 3.911 3.432 2.64 3.216 1.655 3.216 C 1.487 3.288 1.487 3.648 1.631 3.695 C 4.223 4.176 5.159 5.64 5.159 7.729 C 5.159 10.057 3.792 11.568 1.296 11.568 C .024 11.568 0 11.473 0 10.703 Z " fill="#062d74"/>
<path transform="matrix(1,0,0,-1,179.0959,13.979515)" d="M 0 0 C 0 2.52 -.049 2.904 -1.44 3.023 L -2.041 3.071 C -2.186 3.168 -2.137 3.601 -1.993 3.672 C -.817 3.624 -.049 3.601 1.031 3.601 C 1.967 3.601 2.784 3.624 3.816 3.672 C 3.959 3.601 4.008 3.168 3.863 3.071 L 3.408 3.023 C 2.015 2.879 1.967 2.52 1.967 0 L 1.967 -2.761 C 1.967 -3.217 2.015 -3.674 2.28 -3.674 C 2.495 -3.674 2.784 -3.529 2.951 -3.408 C 3.287 -3.121 3.912 -2.496 4.176 -2.256 L 6.767 .311 C 7.223 .743 8.399 1.967 8.639 2.304 C 8.76 2.471 8.808 2.592 8.808 2.688 C 8.808 2.783 8.712 2.855 8.399 2.928 L 7.752 3.071 C 7.583 3.239 7.607 3.552 7.8 3.672 C 8.639 3.624 9.599 3.601 10.439 3.601 C 11.279 3.601 12.095 3.624 12.815 3.672 C 12.982 3.552 13.006 3.215 12.863 3.071 C 12.239 3.023 11.304 2.783 10.631 2.399 C 9.96 2.015 8.615 .888 7.271 -.385 L 5.111 -2.424 C 4.775 -2.761 4.56 -2.977 4.56 -3.169 C 4.56 -3.336 4.703 -3.529 5.016 -3.912 C 7.296 -6.528 9.144 -8.689 11.016 -10.656 C 11.592 -11.232 12.12 -11.545 12.937 -11.641 L 13.583 -11.713 C 13.752 -11.832 13.703 -12.24 13.535 -12.313 C 12.911 -12.264 11.976 -12.24 10.848 -12.24 C 9.864 -12.24 9.023 -12.264 7.92 -12.313 C 7.752 -12.264 7.68 -11.856 7.823 -11.713 L 8.375 -11.616 C 8.712 -11.568 8.951 -11.496 8.951 -11.377 C 8.951 -11.232 8.783 -11.041 8.615 -10.824 C 8.158 -10.248 7.535 -9.601 6.623 -8.568 L 4.703 -6.408 C 3.335 -4.873 2.951 -4.393 2.375 -4.393 C 2.015 -4.393 1.967 -4.705 1.967 -5.545 L 1.967 -8.641 C 1.967 -11.16 2.015 -11.496 3.359 -11.641 L 4.008 -11.713 C 4.15 -11.809 4.104 -12.24 3.959 -12.313 C 2.784 -12.264 1.967 -12.24 1.031 -12.24 C .048 -12.24 -.769 -12.264 -1.752 -12.313 C -1.896 -12.24 -1.945 -11.881 -1.801 -11.713 L -1.32 -11.641 C -.049 -11.449 0 -11.16 0 -8.641 Z " fill="#062d74"/>
<path transform="matrix(1,0,0,-1,195.5685,14.028313)" d="M 0 0 C 0 2.545 -.048 2.953 -1.464 3.072 L -2.064 3.12 C -2.209 3.217 -2.16 3.649 -2.017 3.721 C -.816 3.673 0 3.649 1.008 3.649 C 1.967 3.649 2.784 3.673 3.984 3.721 C 4.129 3.649 4.176 3.217 4.032 3.12 L 3.432 3.072 C 2.016 2.953 1.967 2.545 1.967 0 L 1.967 -8.543 C 1.967 -11.088 2.016 -11.424 3.432 -11.592 L 4.032 -11.664 C 4.176 -11.76 4.129 -12.191 3.984 -12.264 C 2.784 -12.215 1.967 -12.191 1.008 -12.191 C 0 -12.191 -.816 -12.215 -2.017 -12.264 C -2.16 -12.191 -2.209 -11.808 -2.064 -11.664 L -1.464 -11.592 C -.048 -11.424 0 -11.088 0 -8.543 Z " fill="#062d74"/>
<path transform="matrix(1,0,0,-1,216.3283,22.139714)" d="M 0 0 C 0 -.721 0 -3.577 .073 -4.201 C .024 -4.344 -.118 -4.465 -.383 -4.465 C -.671 -4.057 -1.367 -3.217 -3.455 -.842 L -9.022 5.496 C -9.671 6.239 -11.304 8.207 -11.807 8.735 L -11.854 8.735 C -11.951 8.447 -11.976 7.896 -11.976 7.176 L -11.976 1.943 C -11.976 .816 -11.951 -2.304 -11.543 -3.023 C -11.398 -3.289 -10.919 -3.433 -10.318 -3.48 L -9.575 -3.553 C -9.431 -3.745 -9.455 -4.033 -9.623 -4.152 C -10.703 -4.104 -11.543 -4.08 -12.432 -4.08 C -13.438 -4.08 -14.088 -4.104 -14.927 -4.152 C -15.095 -4.033 -15.119 -3.696 -14.975 -3.553 L -14.326 -3.48 C -13.775 -3.408 -13.391 -3.266 -13.271 -3 C -12.935 -2.136 -12.959 .791 -12.959 1.943 L -12.959 8.879 C -12.959 9.551 -12.982 10.056 -13.486 10.607 C -13.823 10.943 -14.399 11.111 -14.975 11.184 L -15.383 11.231 C -15.527 11.375 -15.527 11.735 -15.334 11.832 C -14.326 11.761 -13.055 11.761 -12.623 11.761 C -12.239 11.761 -11.831 11.784 -11.52 11.832 C -11.039 10.607 -8.207 7.439 -7.416 6.552 L -5.087 3.937 C -3.432 2.088 -2.256 .744 -1.128 -.408 L -1.079 -.408 C -.983 -.289 -.983 .096 -.983 .6 L -.983 5.736 C -.983 6.863 -1.008 9.983 -1.463 10.703 C -1.606 10.92 -1.991 11.064 -2.95 11.184 L -3.358 11.231 C -3.527 11.375 -3.503 11.761 -3.312 11.832 C -2.207 11.784 -1.391 11.761 -.479 11.761 C .554 11.761 1.178 11.784 1.993 11.832 C 2.186 11.712 2.186 11.375 2.041 11.231 L 1.705 11.184 C .937 11.064 .457 10.871 .36 10.68 C -.047 9.815 0 6.84 0 5.736 Z " fill="#062d74"/>
<path transform="matrix(1,0,0,-1,222.631,26.604516)" d="M 0 0 C -2.016 0 -3.287 .624 -3.744 .888 C -4.031 1.416 -4.344 3.12 -4.392 4.248 C -4.271 4.416 -3.91 4.465 -3.816 4.32 C -3.456 3.097 -2.472 .744 .312 .744 C 2.328 .744 3.313 2.064 3.313 3.505 C 3.313 4.561 3.096 5.737 1.344 6.864 L -.936 8.353 C -2.136 9.145 -3.528 10.514 -3.528 12.48 C -3.528 14.761 -1.752 16.608 1.368 16.608 C 2.112 16.608 2.976 16.464 3.601 16.297 C 3.912 16.2 4.248 16.152 4.44 16.152 C 4.657 15.576 4.872 14.232 4.872 13.224 C 4.776 13.08 4.393 13.01 4.272 13.152 C 3.96 14.305 3.313 15.864 1.009 15.864 C -1.343 15.864 -1.848 14.305 -1.848 13.2 C -1.848 11.809 -.695 10.8 .191 10.248 L 2.112 9.049 C 3.625 8.112 5.113 6.721 5.113 4.44 C 5.113 1.801 3.12 0 0 0 " fill="#062d74"/>
</g>
<g id="Layer-1" data-name="Layer">
<g id="Layer-2" data-name="AltAI8">
</g>
</g>
<g id="Layer-1" data-name="Layer">
<g id="Layer-2" data-name="AltAI8">
</g>
</g>
<g id="Layer-1" data-name="Layer">
<g id="Layer-2" data-name="AltAI8">
</g>
</g>
<g id="Layer-1" data-name="Layer">
<g id="Layer-2" data-name="AltAI8">
</g>
</g>
<g id="Layer-1" data-name="Layer">
<g id="Layer-2" data-name="AltAI8">
</g>
</g>
<g id="Layer-1" data-name="Layer">
<g id="Layer-2" data-name="AltAI8">
</g>
</g>
<g id="Layer-1" data-name="Layer">
<g id="Layer-2" data-name="AltAI8">
</g>
</g>
</g>
</g>
</svg>
